<svg id="weels" xmlns="http://www.w3.org/2000/svg" width="753" height="939" viewBox="0 0 753 939">
  <metadata><?xpacket begin="﻿" id="W5M0MpCehiHzreSzNTczkc9d"?>
<x:xmpmeta xmlns:x="adobe:ns:meta/" x:xmptk="Adobe XMP Core 5.6-c138 79.159824, 2016/09/14-01:09:01        ">
   <rdf:RDF xmlns:rdf="http://www.w3.org/1999/02/22-rdf-syntax-ns#">
      <rdf:Description rdf:about=""/>
   </rdf:RDF>
</x:xmpmeta>
                                                                                                    
                                                                                                    
                                                                                                    
                                                                                                    
                                                                                                    
                                                                                                    
                                                                                                    
                                                                                                    
                                                                                                    
                                                                                                    
                                                                                                    
                                                                                                    
                                                                                                    
                                                                                                    
                                                                                                    
                                                                                                    
                                                                                                    
                                                                                                    
                                                                                                    
                                                                                                    
                           
<?xpacket end="w"?></metadata>
<defs>
    <style>
      .cls-1 {
        fill: #005e20;
      }

      .cls-2 {
        fill: #197b30;
      }

      .cls-3 {
        fill: #707070;
      }

      .cls-4 {
        fill-rule: evenodd;
      }

      .cls-5 {
        fill: #959595;
      }

      .cls-6 {
        fill: #ccc;
      }
    </style>
  </defs>
  <rect class="cls-1" x="281" y="447" width="171" height="171"/>
  <rect class="cls-1" x="426" y="492" width="190" height="32"/>
  <rect id="base" class="cls-1" x="183" y="581" width="384" height="80"/>
  <rect x="183" y="582" width="21" height="59"/>
  <rect id="Rectangle_6_copy_2" data-name="Rectangle 6 copy 2" x="204" y="562" width="342" height="21"/>
  <rect class="cls-2" x="215" y="595" width="160" height="18"/>
  <rect id="Rectangle_7_copy_2" data-name="Rectangle 7 copy 2" class="cls-2" x="577" y="498" width="25" height="6"/>
  <rect id="Rectangle_7_copy" data-name="Rectangle 7 copy" class="cls-2" x="295" y="456" width="35" height="32"/>
  <rect id="Rectangle_6_copy" data-name="Rectangle 6 copy" x="546" y="581" width="21" height="59"/>
  <rect x="447" y="447" width="11" height="123"/>
  <rect id="Rectangle_9_copy_3" data-name="Rectangle 9 copy 3" x="458" y="483" width="158" height="11"/>
  <rect id="Rectangle_9_copy_4" data-name="Rectangle 9 copy 4" x="610" y="488" width="11" height="32"/>
  <rect id="Rectangle_9_copy_5" data-name="Rectangle 9 copy 5" x="457" y="515" width="159" height="11"/>
  <rect id="Rectangle_9_copy" data-name="Rectangle 9 copy" x="288" y="436" width="159" height="11"/>
  <rect id="Rectangle_9_copy_2" data-name="Rectangle 9 copy 2" x="277" y="446" width="11" height="123"/>
  <rect class="cls-3" x="154" y="670" width="442" height="104"/>
  <rect x="122" y="670" width="32" height="104"/>
  <rect id="Rectangle_2_copy_3" data-name="Rectangle 2 copy 3" x="596" y="670" width="32" height="104"/>
  <g id="weel">
    <path class="cls-4" d="M179,690h64v64H179V690Zm63,21h7v23h-7V711Z"/>
    <rect x="174" y="706" width="5" height="31"/>
    <rect class="cls-5" x="191" y="703" width="39" height="39"/>
    <rect class="cls-6" x="194" y="707" width="12" height="15"/>
    <g id="weel_copy" data-name="weel copy">
      <path class="cls-4" d="M511,690h64v64H511V690Zm21-6h23v7H532v-7Z"/>
      <rect x="527" y="754" width="31" height="5"/>
      <rect class="cls-5" x="524" y="703" width="39" height="39"/>
    </g>
    <g id="weel_copy_2" data-name="weel copy 2">
      <path class="cls-4" d="M402,690h64v64H402V690Zm63,21h7v23h-7V711Z"/>
      <rect x="397" y="706" width="5" height="31"/>
      <rect class="cls-5" x="414" y="703" width="39" height="39"/>
    </g>
    <g id="weel_copy_3" data-name="weel copy 3">
      <path class="cls-4" d="M288,690h64v64H288V690Zm21-6h23v7H309v-7Z"/>
      <rect x="304" y="754" width="31" height="5"/>
      <rect class="cls-5" x="301" y="703" width="39" height="39"/>
    </g>
    <rect class="cls-6" x="304" y="706" width="12" height="12"/>
    <rect class="cls-6" x="418" y="706" width="12" height="12"/>
    <rect class="cls-6" x="528" y="707" width="11" height="11"/>
  </g>
  <path id="Rectangle_2_copy" data-name="Rectangle 2 copy" class="cls-4" d="M154,637.792H595.985V670H154V637.792Z"/>
  <path id="Rectangle_2_copy_2" data-name="Rectangle 2 copy 2" class="cls-4" d="M154,773.792H595.985V806H154V773.792Z"/>
</svg>
