<?xml version="1.0" encoding="utf-8"?>
<!-- Generator: Adobe Illustrator 21.1.0, SVG Export Plug-In . SVG Version: 6.00 Build 0)  -->
<svg version="1.1" id="Layer_1" xmlns="http://www.w3.org/2000/svg" xmlns:xlink="http://www.w3.org/1999/xlink" x="0px" y="0px"
	 viewBox="0 0 419 389" style="enable-background:new 0 0 419 389;" xml:space="preserve">
<style type="text/css">
	.st0{fill:#DF8B3A;}
	.st1{fill:#0A0B0A;}
	.st2{fill:#855A5A;}
</style>
<g id="legs">
	<polygon points="13.1,68.5 16.6,141.3 22.1,85.4 	"/>
	<polygon points="405.4,83 397.9,155.6 395.5,99.5 	"/>
	
		<rect x="119.7" y="16.6" transform="matrix(0.8943 -0.4474 0.4474 0.8943 -26.3082 67.3937)" class="st0" width="19.6" height="145.6"/>
	
		<rect x="12.7" y="47.3" transform="matrix(0.884 -0.4675 0.4675 0.884 -20.1522 32.5585)" class="st0" width="85.7" height="19.2"/>
	
		<rect x="112.4" y="85.3" transform="matrix(0.8943 -0.4474 0.4474 0.8943 -57.8437 71.3772)" class="st0" width="19.6" height="145.6"/>
	<rect x="5.3" y="116" transform="matrix(0.884 -0.4675 0.4675 0.884 -53.1395 37.0626)" class="st0" width="85.7" height="19.2"/>
	
		<rect x="214.6" y="82.1" transform="matrix(0.5459 -0.8379 0.8379 0.5459 53.5166 282.5332)" class="st0" width="145.6" height="19.6"/>
	
		<rect x="355" y="25.1" transform="matrix(0.5646 -0.8253 0.8253 0.5646 102.6381 330.5437)" class="st0" width="19.2" height="85.7"/>
	
		<rect x="222.7" y="152.8" transform="matrix(0.4821 -0.8761 0.8761 0.4821 10.6048 343.0743)" class="st0" width="145.6" height="19.6"/>
	<rect x="361" y="90.1" transform="matrix(0.5018 -0.865 0.865 0.5018 69.621 386.8334)" class="st0" width="19.2" height="85.7"/>
	<polygon points="5.8,137.2 9.3,210 14.7,154.1 	"/>
	<polygon points="412.5,146.1 405,218.7 402.6,162.6 	"/>
</g>
<g id="head">
	<rect x="195.7" y="272.6" class="st1" width="31.9" height="31.9"/>
	<rect x="195.8" y="301.7" class="st1" width="31.9" height="31.9"/>
	<rect x="194.1" y="240.8" class="st1" width="31.9" height="31.9"/>
	<rect x="225.2" y="240.8" class="st1" width="31.9" height="31.9"/>
	<rect x="165.1" y="241.1" class="st1" width="31.9" height="31.9"/>
	<rect x="137.3" y="97.3" class="st1" width="145.4" height="145.4"/>
	<rect x="197" y="39.3" class="st1" width="31.9" height="31.9"/>
	<rect x="197" y="10.2" class="st1" width="31.9" height="31.9"/>
	<rect x="198.6" y="71.1" class="st1" width="31.9" height="31.9"/>
	<rect x="167.6" y="71.1" class="st1" width="31.9" height="31.9"/>
	<rect x="227.7" y="70.7" class="st1" width="31.9" height="31.9"/>
	<rect x="156.5" y="97.2" class="st0" width="8.6" height="146.4"/>
	<rect x="257.1" y="97.2" class="st0" width="8.6" height="146.4"/>
	<rect x="181" y="71.4" class="st2" width="4.9" height="201.2"/>
	<rect x="235" y="71.4" class="st2" width="4.9" height="201.2"/>
	<rect x="213" y="260" class="st1" width="31.9" height="31.9"/>
	<rect x="171.3" y="262.4" class="st1" width="31.9" height="31.9"/>
	<polygon class="st1" points="195.8,333.6 227.7,333.6 212.1,383 	"/>
</g>
</svg>
