<?xml version="1.0" encoding="utf-8"?>
<!-- Generator: Adobe Illustrator 21.1.0, SVG Export Plug-In . SVG Version: 6.00 Build 0)  -->
<svg version="1.1" id="weels" xmlns="http://www.w3.org/2000/svg" xmlns:xlink="http://www.w3.org/1999/xlink" x="0px" y="0px"
	 viewBox="0 0 753 939" style="enable-background:new 0 0 753 939;" xml:space="preserve">
<style type="text/css">
	.st0{fill:#005E20;}
	.st1{fill:#197B30;}
	.st2{fill:#707070;}
	.st3{fill:#959595;}
	.st4{fill:#CCCCCC;}
</style>
<rect x="281" y="447" class="st0" width="171" height="171"/>
<rect x="358" y="288" transform="matrix(1 -2.429505e-03 2.429505e-03 1 -0.9294 0.9098)" class="st0" width="32" height="190"/>
<rect id="base" x="183" y="581" class="st0" width="384" height="80"/>
<rect x="183" y="582" width="21" height="59"/>
<rect id="Rectangle_6_copy_2" x="204" y="562" width="342" height="21"/>
<rect x="215" y="595" class="st1" width="160" height="18"/>
<rect id="Rectangle_7_copy_2" x="363.8" y="302" transform="matrix(1 -2.429505e-03 2.429505e-03 1 -0.763 0.8922)" class="st1" width="6" height="25"/>
<rect id="Rectangle_7_copy" x="295" y="456" class="st1" width="35" height="32"/>
<rect id="Rectangle_6_copy" x="546" y="581" width="21" height="59"/>
<rect x="447" y="447" width="11" height="123"/>
<rect id="Rectangle_9_copy_3" x="349" y="288" transform="matrix(1 -2.429505e-03 2.429505e-03 1 -0.8907 0.8623)" width="11" height="158"/>
<rect id="Rectangle_9_copy_4" x="353.8" y="283" transform="matrix(1 -2.429505e-03 2.429505e-03 1 -0.6998 0.8992)" width="32" height="11"/>
<rect id="Rectangle_9_copy_5" x="381" y="288" transform="matrix(1 -2.429505e-03 2.429505e-03 1 -0.8916 0.94)" width="11" height="159"/>
<rect id="Rectangle_9_copy" x="288" y="436" width="159" height="11"/>
<rect id="Rectangle_9_copy_2" x="277" y="446" width="11" height="123"/>
<rect x="154" y="670" class="st2" width="442" height="104"/>
<rect x="122" y="670" width="32" height="104"/>
<rect id="Rectangle_2_copy_3" x="596" y="670" width="32" height="104"/>
<g id="weel">
	<path d="M179,690h64v64h-64V690z M242,711h7v23h-7V711z"/>
	<rect x="174" y="706" width="5" height="31"/>
	<rect x="191" y="703" class="st3" width="39" height="39"/>
	<rect x="194" y="707" class="st4" width="12" height="15"/>
	<g id="weel_copy">
		<path d="M511,690h64v64h-64V690z M532,684h23v7h-23V684z"/>
		<rect x="527" y="754" width="31" height="5"/>
		<rect x="524" y="703" class="st3" width="39" height="39"/>
	</g>
	<g id="weel_copy_2">
		<path d="M402,690h64v64h-64V690z M465,711h7v23h-7V711z"/>
		<rect x="397" y="706" width="5" height="31"/>
		<rect x="414" y="703" class="st3" width="39" height="39"/>
	</g>
	<g id="weel_copy_3">
		<path d="M288,690h64v64h-64V690z M309,684h23v7h-23V684z"/>
		<rect x="304" y="754" width="31" height="5"/>
		<rect x="301" y="703" class="st3" width="39" height="39"/>
	</g>
	<rect x="304" y="706" class="st4" width="12" height="12"/>
	<rect x="418" y="706" class="st4" width="12" height="12"/>
	<rect x="528" y="707" class="st4" width="11" height="11"/>
</g>
<path id="Rectangle_2_copy" d="M154,637.8h442V670H154V637.8z"/>
<path id="Rectangle_2_copy_2" d="M154,773.8h442V806H154V773.8z"/>
</svg>
